<svg width="30" height="31" viewBox="0 0 30 31" fill="none" xmlns="http://www.w3.org/2000/svg">
<g filter="url(#filter0_d_147_3933)">
<path d="M5 6C5 4.11438 5 3.17157 5.58579 2.58579C6.17157 2 7.11438 2 9 2C10.8856 2 11.8284 2 12.4142 2.58579C13 3.17157 13 4.11438 13 6V8C13 9.88562 13 10.8284 12.4142 11.4142C11.8284 12 10.8856 12 9 12C7.11438 12 6.17157 12 5.58579 11.4142C5 10.8284 5 9.88562 5 8V6Z" stroke="#8989A2" stroke-width="2"/>
<path d="M5 19C5 18.0681 5 17.6022 5.15224 17.2346C5.35523 16.7446 5.74458 16.3552 6.23463 16.1522C6.60218 16 7.06812 16 8 16H10C10.9319 16 11.3978 16 11.7654 16.1522C12.2554 16.3552 12.6448 16.7446 12.8478 17.2346C13 17.6022 13 18.0681 13 19C13 19.9319 13 20.3978 12.8478 20.7654C12.6448 21.2554 12.2554 21.6448 11.7654 21.8478C11.3978 22 10.9319 22 10 22H8C7.06812 22 6.60218 22 6.23463 21.8478C5.74458 21.6448 5.35523 21.2554 5.15224 20.7654C5 20.3978 5 19.9319 5 19Z" stroke="#8989A2" stroke-width="2"/>
<path d="M17 16C17 14.1144 17 13.1716 17.5858 12.5858C18.1716 12 19.1144 12 21 12C22.8856 12 23.8284 12 24.4142 12.5858C25 13.1716 25 14.1144 25 16V18C25 19.8856 25 20.8284 24.4142 21.4142C23.8284 22 22.8856 22 21 22C19.1144 22 18.1716 22 17.5858 21.4142C17 20.8284 17 19.8856 17 18V16Z" stroke="#8989A2" stroke-width="2"/>
<path d="M17 5C17 4.06812 17 3.60218 17.1522 3.23463C17.3552 2.74458 17.7446 2.35523 18.2346 2.15224C18.6022 2 19.0681 2 20 2H22C22.9319 2 23.3978 2 23.7654 2.15224C24.2554 2.35523 24.6448 2.74458 24.8478 3.23463C25 3.60218 25 4.06812 25 5C25 5.93188 25 6.39782 24.8478 6.76537C24.6448 7.25542 24.2554 7.64477 23.7654 7.84776C23.3978 8 22.9319 8 22 8H20C19.0681 8 18.6022 8 18.2346 7.84776C17.7446 7.64477 17.3552 7.25542 17.1522 6.76537C17 6.39782 17 5.93188 17 5Z" stroke="#8989A2" stroke-width="2"/>
</g>
<defs>
<filter id="filter0_d_147_3933" x="-1" y="0" width="32" height="32" filterUnits="userSpaceOnUse" color-interpolation-filters="sRGB">
<feFlood flood-opacity="0" result="BackgroundImageFix"/>
<feColorMatrix in="SourceAlpha" type="matrix" values="0 0 0 0 0 0 0 0 0 0 0 0 0 0 0 0 0 0 127 0" result="hardAlpha"/>
<feOffset dy="4"/>
<feGaussianBlur stdDeviation="2"/>
<feColorMatrix type="matrix" values="0 0 0 0 0 0 0 0 0 0 0 0 0 0 0 0 0 0 0.25 0"/>
<feBlend mode="normal" in2="BackgroundImageFix" result="effect1_dropShadow_147_3933"/>
<feBlend mode="normal" in="SourceGraphic" in2="effect1_dropShadow_147_3933" result="shape"/>
</filter>
</defs>
</svg>
