<svg width="24" height="28" viewBox="0 0 24 28" fill="none" xmlns="http://www.w3.org/2000/svg">
<g filter="url(#filter0_d_168_3952)">
<path d="M9 15H15M9 12H15M13.0004 1.00087C12.9048 1 12.7974 1 12.6747 1H8.2002C7.08009 1 6.51962 1 6.0918 1.21799C5.71547 1.40973 5.40973 1.71547 5.21799 2.0918C5 2.51962 5 3.08009 5 4.2002V15.8002C5 16.9203 5 17.4801 5.21799 17.9079C5.40973 18.2842 5.71547 18.5905 6.0918 18.7822C6.51921 19 7.079 19 8.19694 19L15.8031 19C16.921 19 17.48 19 17.9074 18.7822C18.2837 18.5905 18.5905 18.2842 18.7822 17.9079C19 17.4805 19 16.9215 19 15.8036V7.32568C19 7.20302 18.9999 7.09553 18.999 7M13.0004 1.00087C13.2858 1.00348 13.4657 1.01407 13.6382 1.05547C13.8423 1.10446 14.0379 1.18526 14.2168 1.29492C14.4186 1.41857 14.5918 1.59181 14.9375 1.9375L18.063 5.06298C18.4089 5.40889 18.5809 5.58136 18.7046 5.78319C18.8142 5.96214 18.8953 6.15726 18.9443 6.36133C18.9857 6.53379 18.9964 6.71454 18.999 7M13.0004 1.00087L13 3.80021C13 4.92031 13 5.48015 13.218 5.90797C13.4097 6.2843 13.7155 6.59048 14.0918 6.78223C14.5192 7 15.079 7 16.1969 7H18.999" stroke="#8989A2" stroke-width="2" stroke-linecap="round" stroke-linejoin="round"/>
</g>
<defs>
<filter id="filter0_d_168_3952" x="0" y="0" width="24" height="28" filterUnits="userSpaceOnUse" color-interpolation-filters="sRGB">
<feFlood flood-opacity="0" result="BackgroundImageFix"/>
<feColorMatrix in="SourceAlpha" type="matrix" values="0 0 0 0 0 0 0 0 0 0 0 0 0 0 0 0 0 0 127 0" result="hardAlpha"/>
<feOffset dy="4"/>
<feGaussianBlur stdDeviation="2"/>
<feColorMatrix type="matrix" values="0 0 0 0 0 0 0 0 0 0 0 0 0 0 0 0 0 0 0.25 0"/>
<feBlend mode="normal" in2="BackgroundImageFix" result="effect1_dropShadow_168_3952"/>
<feBlend mode="normal" in="SourceGraphic" in2="effect1_dropShadow_168_3952" result="shape"/>
</filter>
</defs>
</svg>
