<svg width="21" height="23" viewBox="0 0 21 23" fill="none" xmlns="http://www.w3.org/2000/svg">
<path d="M2.25 22.5009H18C18.5967 22.5009 19.169 22.2638 19.591 21.8419C20.0129 21.4199 20.25 20.8476 20.25 20.2509V10.1259C20.2509 9.97783 20.2225 9.83106 20.1665 9.694C20.1105 9.55693 20.028 9.43226 19.9237 9.32714L10.9237 0.327142C10.713 0.117609 10.4278 0 10.1306 0C9.83342 0 9.54828 0.117609 9.3375 0.327142L0.3375 9.32714C0.231201 9.43133 0.146635 9.55558 0.0887009 9.69269C0.0307672 9.8298 0.000617906 9.97705 0 10.1259V20.2509C0 20.8476 0.237053 21.4199 0.65901 21.8419C1.08097 22.2638 1.65326 22.5009 2.25 22.5009ZM7.875 20.2509V14.6259H12.375V20.2509H7.875ZM2.25 10.5871L10.125 2.71214L18 10.5871V20.2509H14.625V14.6259C14.625 14.0292 14.3879 13.4569 13.966 13.0349C13.544 12.6129 12.9717 12.3759 12.375 12.3759H7.875C7.27826 12.3759 6.70597 12.6129 6.28401 13.0349C5.86205 13.4569 5.625 14.0292 5.625 14.6259V20.2509H2.25V10.5871Z" fill="#8989A2"/>
</svg>
