<svg width="35" height="29" viewBox="0 0 35 29" fill="none" xmlns="http://www.w3.org/2000/svg">
<g filter="url(#filter0_d_168_3959)">
<path d="M9.96257 5.30399H24.3392M9.96257 5.30399C9.21704 5.30399 8.84335 5.30399 8.5586 5.45491C8.30812 5.58765 8.10463 5.79932 7.977 6.05985C7.83191 6.35604 7.83191 6.74405 7.83191 7.51951V14.7195C7.83191 16.2704 7.83191 17.046 8.12209 17.6384C8.37734 18.1595 8.78433 18.5831 9.28528 18.8486C9.85423 19.1501 10.5994 19.1501 12.0876 19.1501H22.2122C23.7004 19.1501 24.4445 19.1501 25.0134 18.8486C25.5144 18.5831 25.9232 18.1594 26.1784 17.6383C26.4683 17.0465 26.4683 16.2724 26.4683 14.7245V7.50695C26.4683 6.73986 26.4683 6.35443 26.324 6.05985C26.1964 5.79932 25.992 5.58765 25.7415 5.45491C25.4567 5.30399 25.0848 5.30399 24.3392 5.30399M9.96257 5.30399H7.79904C6.66875 5.30399 6.10394 5.30399 5.78316 5.09846C5.35507 4.82418 5.11235 4.32202 5.15527 3.80096C5.18746 3.41016 5.52389 2.93753 6.19785 1.99115C6.39278 1.71743 6.49027 1.58054 6.60959 1.47602C6.76868 1.33665 6.95747 1.23768 7.15983 1.18766C7.3116 1.15015 7.4745 1.15015 7.80202 1.15015H26.4975C26.825 1.15015 26.9883 1.15015 27.1401 1.18766C27.3425 1.23768 27.5312 1.33665 27.6903 1.47602C27.8096 1.58054 27.9075 1.71679 28.1024 1.99052C28.7763 2.93688 29.1133 3.41008 29.1455 3.80088C29.1884 4.32194 28.9448 4.82418 28.5168 5.09846C28.196 5.30399 27.6298 5.30399 26.4995 5.30399H24.3392M14.4878 12.2271H19.8125" stroke="#8989A2" stroke-width="2.3" stroke-linecap="round" stroke-linejoin="round"/>
</g>
<defs>
<filter id="filter0_d_168_3959" x="0" y="0" width="34.3008" height="28.3" filterUnits="userSpaceOnUse" color-interpolation-filters="sRGB">
<feFlood flood-opacity="0" result="BackgroundImageFix"/>
<feColorMatrix in="SourceAlpha" type="matrix" values="0 0 0 0 0 0 0 0 0 0 0 0 0 0 0 0 0 0 127 0" result="hardAlpha"/>
<feOffset dy="4"/>
<feGaussianBlur stdDeviation="2"/>
<feColorMatrix type="matrix" values="0 0 0 0 0 0 0 0 0 0 0 0 0 0 0 0 0 0 0.25 0"/>
<feBlend mode="normal" in2="BackgroundImageFix" result="effect1_dropShadow_168_3959"/>
<feBlend mode="normal" in="SourceGraphic" in2="effect1_dropShadow_168_3959" result="shape"/>
</filter>
</defs>
</svg>
